<?xml version="1.0" standalone="no"?>
<!DOCTYPE svg PUBLIC "-//W3C//DTD SVG 20010904//EN"
 "http://www.w3.org/TR/2001/REC-SVG-20010904/DTD/svg10.dtd">
<svg version="1.0" xmlns="http://www.w3.org/2000/svg"
 width="1024.000000pt" height="1024.000000pt" viewBox="0 0 1024.000000 1024.000000"
 preserveAspectRatio="xMidYMid meet">

<g transform="translate(0.000000,1024.000000) scale(0.100000,-0.100000)"
fill="#000000" stroke="none">
<path d="M4833 9460 c-705 -68 -1335 -354 -1862 -845 -74 -69 -222 -238 -308
-352 -328 -432 -517 -894 -590 -1438 -27 -204 -24 -633 6 -825 41 -268 98
-479 187 -700 197 -485 539 -937 951 -1256 444 -344 897 -537 1463 -625 125
-20 185 -23 440 -24 261 0 313 3 450 24 482 73 899 235 1285 499 439 300 805
725 1039 1207 135 277 243 659 277 980 19 179 14 543 -10 725 -107 817 -519
1523 -1181 2024 -423 320 -899 512 -1450 586 -176 24 -547 34 -697 20z m697
-163 c335 -48 608 -132 905 -277 658 -323 1144 -850 1418 -1540 241 -605 258
-1320 47 -1961 -112 -341 -290 -657 -541 -959 -87 -105 -272 -292 -319 -323
-31 -20 -360 -37 -360 -19 0 6 5 14 10 17 18 11 11 51 -12 72 -13 12 -39 24
-58 28 -64 12 -72 17 -86 51 -17 40 -18 146 -3 230 11 63 56 214 67 226 8 8
211 -78 277 -117 24 -14 45 -33 47 -42 2 -10 -4 -47 -14 -83 -27 -96 -24 -136
11 -171 60 -60 105 -29 150 105 37 111 40 179 11 235 -11 23 -63 78 -122 129
-57 50 -124 112 -151 139 l-47 49 29 65 c70 155 75 183 77 430 2 247 6 268 63
308 16 12 61 28 100 36 39 8 89 24 110 35 100 51 153 189 95 247 -24 24 -29
25 -95 19 l-70 -7 -60 56 c-78 71 -140 102 -235 116 -131 20 -226 -13 -316
-109 -55 -59 -96 -136 -104 -195 -11 -86 66 -178 164 -197 88 -16 91 -12 94
133 3 114 4 122 23 122 26 0 46 -72 48 -175 3 -105 -31 -153 -117 -167 -69
-11 -125 14 -196 87 -60 62 -72 70 -159 99 -110 37 -135 49 -216 104 -177 120
-321 332 -357 527 -13 65 -7 90 20 90 10 0 46 14 79 30 121 61 190 175 180
300 -3 36 -8 72 -11 80 -5 11 30 37 136 100 79 46 174 104 211 127 37 24 72
41 77 38 5 -3 34 -46 66 -95 31 -50 60 -90 64 -90 4 0 35 16 68 36 l62 37 -22
36 c-12 20 -41 64 -64 98 l-43 63 52 33 c103 66 90 69 153 -28 31 -48 62 -89
69 -91 12 -5 125 61 125 72 0 14 -196 313 -206 314 -5 0 -50 -25 -100 -56 -49
-31 -213 -133 -364 -227 -151 -93 -294 -182 -318 -198 l-42 -28 -35 24 c-129
87 -340 67 -434 -41 -57 -64 -74 -111 -79 -211 l-4 -91 -37 5 c-195 26 -284
68 -411 193 -86 85 -223 278 -346 489 -61 105 -151 198 -228 236 -51 25 -70
29 -150 29 -61 0 -109 -6 -146 -18 -116 -38 -748 -347 -816 -399 -83 -63 -98
-93 -281 -546 -94 -235 -106 -278 -84 -319 23 -43 98 -68 146 -48 40 17 57 40
96 136 17 41 55 136 86 210 137 336 135 332 200 379 56 40 472 251 495 251 20
0 20 -4 14 -82 -25 -282 -310 -1772 -382 -1993 -40 -121 -109 -226 -432 -653
l-160 -212 -79 107 c-120 163 -197 289 -283 464 -137 279 -215 530 -262 844
-19 127 -22 192 -23 420 0 321 19 481 91 750 203 770 730 1427 1444 1803 339
178 691 282 1105 326 92 9 594 -3 695 -17z m-1135 -1969 c8 -13 43 -66 76
-118 220 -343 454 -468 932 -496 73 -4 120 -11 122 -18 1 -6 10 -50 19 -97 64
-341 318 -616 664 -718 39 -12 72 -25 72 -30 0 -14 -56 -86 -90 -114 -84 -71
-180 -101 -419 -133 -281 -37 -282 -37 -343 -25 -105 22 -176 99 -199 213 -14
71 6 178 51 277 39 84 38 117 -4 114 -61 -4 -168 -141 -201 -256 -27 -93 -18
-215 21 -298 29 -60 76 -118 132 -162 l23 -18 -26 -42 c-48 -76 -63 -120 -95
-272 -40 -191 -68 -252 -162 -352 -80 -86 -90 -108 -107 -238 -20 -151 -19
-235 6 -282 12 -22 19 -44 16 -47 -9 -8 -333 -8 -333 1 0 3 11 21 25 39 14 18
30 45 36 61 6 15 24 168 39 338 16 171 39 409 51 530 26 255 21 321 -29 425
-17 36 -135 224 -261 419 -127 195 -231 362 -231 372 0 9 7 50 15 90 8 41 44
241 81 444 68 379 76 415 93 415 6 0 17 -10 26 -22z m1272 -143 c48 -20 71
-41 94 -87 80 -158 -133 -313 -278 -202 -63 48 -79 124 -43 199 42 87 141 126
227 90z m-1688 -1093 c225 -340 369 -567 395 -622 36 -76 37 -115 12 -390 -8
-91 -25 -287 -38 -435 -24 -301 -21 -338 32 -395 22 -24 24 -30 12 -30 -10 -1
-273 -1 -587 -1 l-569 1 -51 34 c-27 19 -74 60 -103 89 l-54 55 119 148 c243
305 452 587 526 710 53 89 88 208 167 573 38 177 70 325 70 327 0 2 6 4 13 4
6 -1 32 -31 56 -68z m2006 -1082 c125 -49 235 -80 283 -80 17 0 33 -1 33 -2 1
-2 5 -104 9 -228 9 -248 23 -325 81 -427 34 -62 34 -62 12 -58 -10 2 -152 4
-315 4 l-298 1 0 39 c0 48 -29 87 -73 96 -69 15 -111 86 -112 190 0 66 3 74
46 145 79 127 75 117 105 307 12 77 57 80 229 13z m-566 -329 c-14 -75 -20
-130 -15 -154 9 -49 87 -203 131 -258 19 -24 35 -46 35 -49 0 -3 -28 -4 -63
-3 -34 1 -139 2 -233 2 l-171 1 5 30 c5 38 -20 78 -59 92 -24 8 -29 15 -29 44
0 40 50 182 78 221 11 16 72 57 136 92 64 35 133 79 154 97 54 46 59 27 31
-115z"/>
<path d="M4213 8746 c-174 -57 -270 -211 -252 -405 27 -297 407 -433 619 -221
143 142 143 388 0 531 -68 68 -147 102 -245 106 -49 2 -96 -2 -122 -11z"/>
<path d="M1910 2488 c0 -174 -3 -323 -6 -332 -5 -14 15 -16 190 -16 l196 0 0
55 0 55 -130 0 -130 0 0 274 0 274 -60 4 -60 3 0 -317z"/>
<path d="M3115 2796 c-67 -29 -115 -105 -115 -182 1 -44 34 -108 71 -137 19
-14 66 -40 104 -57 89 -40 115 -64 115 -106 0 -87 -126 -100 -207 -22 l-31 30
-44 -40 -43 -41 30 -31 c78 -82 224 -107 325 -55 95 49 126 184 65 277 -20 29
-46 47 -122 84 -119 56 -133 68 -133 110 0 74 92 95 166 39 l36 -28 39 39 c38
38 39 40 23 63 -28 39 -110 71 -184 71 -36 -1 -79 -7 -95 -14z"/>
<path d="M4013 2789 c-70 -27 -146 -97 -179 -166 -36 -73 -44 -188 -19 -265
66 -204 321 -297 514 -187 28 16 51 35 51 42 0 7 -14 29 -30 49 l-30 36 -53
-29 c-157 -86 -337 21 -337 202 0 108 79 207 178 224 51 8 129 -11 169 -41 17
-13 34 -24 37 -24 2 0 22 21 42 46 l38 46 -26 23 c-75 64 -247 85 -355 44z"/>
<path d="M4719 2797 c-91 -34 -154 -93 -196 -182 -23 -51 -28 -73 -28 -145 0
-71 5 -94 27 -141 52 -114 142 -181 262 -198 124 -18 222 13 300 93 66 69 90
126 94 228 7 152 -47 253 -169 318 -58 31 -73 34 -159 37 -62 2 -108 -1 -131
-10z m188 -112 c134 -40 197 -226 116 -347 -52 -78 -164 -117 -254 -87 -45 15
-107 74 -130 124 -42 91 -12 221 65 280 61 46 119 55 203 30z"/>
<path d="M6139 2785 c-5 -11 -61 -157 -125 -325 -63 -167 -118 -308 -121 -313
-2 -4 25 -7 62 -5 l67 3 31 85 32 85 130 0 129 0 31 -87 30 -88 69 0 c51 0 67
3 63 13 -13 27 -185 468 -218 554 l-34 92 -69 3 c-61 3 -70 1 -77 -17z m120
-253 l40 -112 -89 0 -89 0 24 63 c13 34 28 74 34 90 6 15 16 39 21 53 6 15 12
25 15 23 2 -3 22 -55 44 -117z"/>
<path d="M6704 2801 c-2 -2 -4 -152 -4 -333 l0 -328 65 0 65 0 0 329 0 329
-61 4 c-33 1 -63 1 -65 -1z"/>
<path d="M7980 2799 c-81 -32 -126 -109 -118 -199 8 -79 43 -122 135 -165 112
-51 126 -60 142 -88 12 -20 12 -30 2 -54 -29 -70 -139 -70 -212 0 l-26 25 -41
-35 c-23 -19 -42 -39 -42 -43 0 -19 78 -81 119 -95 65 -22 182 -20 231 5 64
33 94 81 98 160 7 111 -23 149 -167 217 -52 24 -100 52 -107 61 -34 44 7 112
66 112 38 0 84 -23 105 -52 l16 -23 40 45 40 45 -42 37 c-23 21 -58 42 -78 48
-45 12 -128 12 -161 -1z"/>
<path d="M2435 2470 l0 -330 190 0 190 0 0 55 0 55 -133 0 -133 0 3 81 3 82
113 -2 112 -2 0 55 0 55 -112 3 -113 3 -3 73 c-2 52 1 74 10 77 21 8 77 13
166 14 l82 1 0 55 0 55 -187 0 -188 0 0 -330z"/>
<path d="M5370 2470 l0 -330 60 0 60 0 0 115 0 115 61 0 c83 0 140 16 184 53
90 74 101 224 24 312 -44 50 -104 65 -261 65 l-128 0 0 -330z m242 210 c73
-21 92 -102 39 -162 -25 -29 -35 -32 -95 -36 l-66 -4 0 106 0 106 43 0 c23 0
59 -5 79 -10z"/>
<path d="M7060 2470 l0 -330 60 0 60 0 0 232 0 232 172 -232 172 -232 68 0 68
0 0 330 0 330 -60 0 -60 0 -2 -237 -3 -238 -175 237 -175 237 -62 1 -63 0 0
-330z"/>
<path d="M3895 1743 c-81 -42 -124 -114 -125 -206 0 -133 80 -217 209 -217 33
0 71 5 85 11 20 10 28 9 41 -5 33 -32 53 -38 80 -20 29 19 32 39 8 53 -45 26
-46 26 -19 66 73 107 36 253 -77 310 -60 30 -154 34 -202 8z m166 -86 c18 -12
39 -34 46 -47 18 -35 16 -121 -3 -148 l-15 -22 -25 30 c-30 35 -44 37 -69 10
-18 -20 -18 -21 10 -50 24 -25 26 -30 12 -36 -29 -11 -87 6 -120 35 -28 26
-32 35 -35 98 -4 70 -4 70 35 111 35 37 45 42 85 42 30 0 56 -7 79 -23z"/>
<path d="M2370 1534 l0 -217 115 5 c105 5 120 8 162 34 62 38 95 101 96 181 0
76 -16 122 -56 161 -44 43 -81 52 -209 52 l-108 0 0 -216z m239 110 c60 -50
60 -153 0 -210 -23 -22 -40 -29 -89 -32 l-60 -4 0 136 0 136 59 0 c49 0 65 -4
90 -26z"/>
<path d="M2970 1591 c0 -148 1 -160 23 -192 12 -18 38 -44 57 -57 30 -21 44
-23 105 -20 55 3 77 9 102 27 55 41 63 71 63 245 l0 156 -45 0 -45 0 0 -153
c0 -147 -1 -154 -23 -175 -13 -12 -37 -24 -54 -28 -25 -5 -37 0 -64 24 l-33
29 -4 152 -4 151 -39 0 -39 0 0 -159z"/>
<path d="M4442 1586 c3 -183 7 -195 79 -244 29 -20 44 -23 101 -20 143 8 180
86 161 346 l-6 82 -38 0 -39 0 0 -149 c0 -143 -1 -151 -24 -177 -33 -39 -89
-39 -122 0 -23 26 -24 34 -24 177 l0 149 -46 0 -45 0 3 -164z"/>
<path d="M5082 1623 c-82 -210 -112 -288 -112 -294 0 -3 20 -5 45 -5 44 1 44
1 62 51 l18 50 81 3 81 3 19 -53 19 -52 48 -3 c58 -4 62 -30 -41 235 l-75 192
-48 0 -47 0 -50 -127z m127 -46 c11 -32 21 -60 21 -62 0 -3 -25 -5 -55 -5
l-54 0 20 58 c12 31 23 63 25 71 7 21 19 3 43 -62z"/>
<path d="M5600 1535 l0 -215 45 2 45 2 0 78 c0 70 2 78 19 78 13 0 33 -24 66
-80 l47 -80 54 0 54 0 -55 89 -55 89 35 35 c31 31 35 41 35 89 0 99 -44 128
-195 128 l-95 0 0 -215z m192 115 c23 -29 23 -45 -2 -70 -13 -13 -33 -20 -60
-20 l-40 0 0 61 0 62 42 -6 c27 -4 49 -14 60 -27z"/>
<path d="M6090 1710 l0 -40 55 0 55 0 2 -172 3 -173 45 0 45 0 3 173 2 172 54
0 54 0 4 35 c2 20 2 38 -1 40 -2 3 -76 5 -163 5 l-158 0 0 -40z"/>
<path d="M6630 1534 l0 -215 43 3 42 4 3 212 2 212 -45 0 -45 0 0 -216z"/>
<path d="M6970 1538 l0 -213 130 -2 130 -2 0 42 0 42 -87 0 -88 0 -3 53 -3 52
80 0 81 0 0 35 0 35 -75 0 c-70 0 -75 1 -81 24 -3 13 -4 35 -2 47 3 23 7 24
88 25 l85 0 3 37 3 37 -130 0 -131 0 0 -212z"/>
<path d="M7475 1538 l0 -211 43 -4 42 -4 0 80 c0 72 2 81 18 81 23 0 38 -17
86 -97 l37 -63 50 0 c27 0 49 2 49 6 0 3 -23 41 -51 85 l-52 80 36 37 c45 47
56 101 30 152 -28 54 -70 70 -188 70 l-100 0 0 -212z m192 120 c7 -6 13 -25
13 -44 0 -40 -21 -54 -79 -54 l-41 0 0 53 c0 30 3 57 8 61 9 10 82 -2 99 -16z"/>
</g>
</svg>
